@startuml

interface Resource {
  + findFree(): int
  + markBusy(resourceId: int): void
  + markFree(resourceId: int): void
}

class ResourceAllocator {
  + allocate(resource: Resource): int
  + free(resource: Resource, resourceId: int): void
}

class SpaceResource {
  + findFree(): int
  + markBusy(resourceId: int): void
  + markFree(resourceId: int): void
}

class TimeResource {
  + findFree(): int
  + markBusy(resourceId: int): void
  + markFree(resourceId: int): void
}

Resource <|-- SpaceResource
Resource <|-- TimeResource
ResourceAllocator --> Resource

@enduml
